<svg width="1448" height="108" viewBox="0 0 1448 108" fill="none" xmlns="http://www.w3.org/2000/svg">
<g style="mix-blend-mode:multiply" filter="url(#filter0_d_37_16)">
<rect x="4" width="1440" height="100" fill="#181813" fill-opacity="0.7"/>
</g>
<path d="M100 38.8H132V42H100V38.8ZM100 48.4H132V51.6H100V48.4ZM100 58H132V61.2H100V58Z" fill="white"/>
<g clip-path="url(#clip0_37_16)">
<path d="M1248.64 56.9114C1246.07 58.9091 1242.83 59.8516 1239.59 59.5468C1236.35 59.2421 1233.34 57.7131 1231.19 55.2712C1229.04 52.8293 1227.89 49.6581 1227.99 46.4032C1228.1 43.1484 1229.43 40.0547 1231.74 37.752C1234.04 35.4494 1237.13 34.111 1240.39 34.0093C1243.64 33.9075 1246.81 35.0502 1249.26 37.2046C1251.7 39.359 1253.23 42.3631 1253.53 45.6052C1253.84 48.8474 1252.89 52.0838 1250.9 54.6554L1259.46 63.1834L1257.18 65.4554L1248.66 56.9114H1248.64ZM1240.8 56.3994C1242.06 56.3994 1243.31 56.1511 1244.47 55.6687C1245.64 55.1862 1246.7 54.4791 1247.59 53.5876C1248.48 52.6962 1249.19 51.6379 1249.67 50.4732C1250.15 49.3085 1250.4 48.0601 1250.4 46.7994C1250.4 45.5387 1250.15 44.2904 1249.67 43.1257C1249.19 41.9609 1248.48 40.9026 1247.59 40.0112C1246.7 39.1197 1245.64 38.4126 1244.47 37.9302C1243.31 37.4477 1242.06 37.1994 1240.8 37.1994C1238.25 37.1994 1235.81 38.2108 1234.01 40.0112C1232.21 41.8115 1231.2 44.2533 1231.2 46.7994C1231.2 49.3455 1232.21 51.7873 1234.01 53.5876C1235.81 55.388 1238.25 56.3994 1240.8 56.3994V56.3994Z" fill="white"/>
</g>
<path d="M1322.4 37.2H1348L1343.2 51.6H1322.4C1321.98 51.6 1321.57 51.7686 1321.27 52.0686C1320.97 52.3687 1320.8 52.7757 1320.8 53.2C1320.8 53.6243 1320.97 54.0313 1321.27 54.3314C1321.57 54.6314 1321.98 54.8 1322.4 54.8H1343.2V58H1322.4C1321.13 58 1319.91 57.4943 1319.01 56.5941C1318.11 55.6939 1317.6 54.473 1317.6 53.2C1317.6 51.927 1318.11 50.7061 1319.01 49.8059C1319.91 48.9057 1321.13 48.4 1322.4 48.4H1322.93L1320.8 42L1319.2 37.2H1316V34H1320.8C1321.22 34 1321.63 34.1686 1321.93 34.4686C1322.23 34.7687 1322.4 35.1757 1322.4 35.6V37.2ZM1324 66C1323.15 66 1322.34 65.6629 1321.74 65.0627C1321.14 64.4626 1320.8 63.6487 1320.8 62.8C1320.8 61.9513 1321.14 61.1374 1321.74 60.5373C1322.34 59.9371 1323.15 59.6 1324 59.6C1324.85 59.6 1325.66 59.9371 1326.26 60.5373C1326.86 61.1374 1327.2 61.9513 1327.2 62.8C1327.2 63.6487 1326.86 64.4626 1326.26 65.0627C1325.66 65.6629 1324.85 66 1324 66ZM1340 66C1339.15 66 1338.34 65.6629 1337.74 65.0627C1337.14 64.4626 1336.8 63.6487 1336.8 62.8C1336.8 61.9513 1337.14 61.1374 1337.74 60.5373C1338.34 59.9371 1339.15 59.6 1340 59.6C1340.85 59.6 1341.66 59.9371 1342.26 60.5373C1342.86 61.1374 1343.2 61.9513 1343.2 62.8C1343.2 63.6487 1342.86 64.4626 1342.26 65.0627C1341.66 65.6629 1340.85 66 1340 66Z" fill="white"/>
<path d="M715.062 46.9064C715.062 42.5131 711.519 38.9812 707.111 38.9812H697V61.8952H707.111C711.519 61.8952 715.062 58.3633 715.062 53.9701C715.062 52.6779 714.759 51.515 714.241 50.4382C714.759 49.3614 715.062 48.1554 715.062 46.9064ZM711.605 50.4382C710.568 51.7734 708.926 52.6348 707.111 52.6348V54.8315C709.272 54.8315 711.216 53.9701 712.685 52.5918C712.815 53.0225 712.858 53.4963 712.858 54.0131C712.858 57.1573 710.309 59.7416 707.111 59.7416H699.593V41.2209H707.111C710.265 41.2209 712.858 43.7621 712.858 46.9494C712.858 47.4232 712.815 47.897 712.685 48.3277C711.259 46.9494 709.272 46.088 707.111 46.088V48.2846C708.926 48.2416 710.568 49.103 711.605 50.4382Z" fill="white"/>
<path d="M729.753 45.5271V48.0684C728.327 46.7331 726.426 45.9148 724.309 45.9148C719.902 45.9148 716.358 49.4466 716.358 53.8399C716.358 58.2332 719.902 61.765 724.309 61.765C726.426 61.765 728.327 60.9467 729.753 59.6115V61.8943H732.346V45.5271H729.753V45.5271ZM724.309 59.31C721.284 59.31 718.821 56.8549 718.821 53.8399C718.821 50.8249 721.284 48.3699 724.309 48.3699C727.118 48.3699 729.408 50.4804 729.753 53.1508V54.486C729.408 57.1995 727.118 59.31 724.309 59.31Z" fill="white"/>
<path d="M766.654 46.044C764.58 46.044 762.679 46.8193 761.296 48.1115V38.9373H758.704V53.9261C758.704 58.3194 762.247 61.8512 766.654 61.8512C771.062 61.8512 774.605 58.3194 774.605 53.9261C774.605 49.5759 771.062 46.044 766.654 46.044ZM766.654 59.4392C763.63 59.4392 761.167 56.9842 761.167 53.9692C761.167 50.9542 763.63 48.4991 766.654 48.4991C769.679 48.4991 772.142 50.9542 772.142 53.9692C772.142 56.9842 769.679 59.4392 766.654 59.4392Z" fill="white"/>
<path d="M766.654 46.044C764.58 46.044 762.679 46.8193 761.296 48.1115V38.9373H758.704V53.9261C758.704 58.3194 762.247 61.8512 766.654 61.8512C771.062 61.8512 774.605 58.3194 774.605 53.9261C774.605 49.5759 771.062 46.044 766.654 46.044ZM766.654 59.4392C763.63 59.4392 761.167 56.9842 761.167 53.9692C761.167 50.9542 763.63 48.4991 766.654 48.4991C769.679 48.4991 772.142 50.9542 772.142 53.9692C772.142 56.9842 769.679 59.4392 766.654 59.4392Z" fill="white"/>
<path d="M783.852 46.0439C779.445 46.0439 775.901 49.5758 775.901 53.969C775.901 58.3623 779.445 61.8942 783.852 61.8942C788.259 61.8942 791.803 58.3623 791.803 53.969C791.803 49.5758 788.259 46.0439 783.852 46.0439ZM783.852 59.4391C780.827 59.4391 778.364 56.984 778.364 53.969C778.364 50.954 780.827 48.499 783.852 48.499C786.877 48.499 789.34 50.954 789.34 53.969C789.34 56.984 786.877 59.4391 783.852 59.4391Z" fill="white"/>
<path d="M801.049 46.0439C796.642 46.0439 793.099 49.5758 793.099 53.969C793.099 58.3623 796.642 61.8942 801.049 61.8942C805.457 61.8942 809 58.3623 809 53.969C809 49.5758 805.457 46.0439 801.049 46.0439ZM801.049 59.4391C798.025 59.4391 795.562 56.984 795.562 53.969C795.562 50.954 798.025 48.499 801.049 48.499C804.074 48.499 806.537 50.954 806.537 53.969C806.537 56.984 804.074 59.4391 801.049 59.4391Z" fill="white"/>
<path d="M746.821 54.4859H744.229V61.9373H746.821V54.4859Z" fill="white"/>
<path d="M757.408 54.4859H754.815V61.9373H757.408V54.4859Z" fill="white"/>
<path fill-rule="evenodd" clip-rule="evenodd" d="M744.199 51.6091H743.783C743.783 49.4124 741.968 47.6034 739.764 47.6034C737.604 47.6034 735.832 49.3263 735.746 51.4799V51.566V51.6521V61.4293H733.153V45.0191H735.746V46.3113C736.869 45.4499 738.252 44.9761 739.764 44.9761C742.173 45.0326 744.266 46.3116 745.421 48.2059C746.613 46.557 748.557 45.4843 750.753 45.4843C754.383 45.4843 757.321 48.4132 757.321 52.0312H754.815C754.815 49.8345 753 48.0255 750.796 48.0255C748.593 48.0255 746.778 49.8345 746.778 52.0312H744.185C744.185 51.8894 744.19 51.7486 744.199 51.6091Z" fill="white"/>
<path fill-rule="evenodd" clip-rule="evenodd" d="M640 27H687V74H640V27ZM665.06 32.5896C671.908 32.5896 677.451 38.1327 677.451 44.9801C677.451 46.9831 676.985 48.8463 676.147 50.4766C676.985 52.1535 677.451 54.0168 677.451 56.0197C677.451 62.8671 671.908 68.4102 665.06 68.4102H649.316V32.5896H665.06ZM665.107 53.9236C667.948 53.9236 670.464 52.5728 672.094 50.5232C670.464 48.4271 667.902 47.1228 665.107 47.1228V43.6758C668.507 43.6758 671.535 45.0267 673.771 47.216C673.957 46.5173 674.051 45.772 674.051 45.0267C674.051 40.0891 670.045 36.0832 665.107 36.0832H653.415V64.9632H665.107C670.045 64.9632 674.051 60.9573 674.051 56.0197C674.051 55.2744 673.957 54.5291 673.771 53.8304C671.535 56.0197 668.461 57.3706 665.107 57.3706V53.9236Z" fill="white"/>
<defs>
<filter id="filter0_d_37_16" x="0" y="0" width="1448" height="108" filterUnits="userSpaceOnUse" color-interpolation-filters="sRGB">
<feFlood flood-opacity="0" result="BackgroundImageFix"/>
<feColorMatrix in="SourceAlpha" type="matrix" values="0 0 0 0 0 0 0 0 0 0 0 0 0 0 0 0 0 0 127 0" result="hardAlpha"/>
<feOffset dy="4"/>
<feGaussianBlur stdDeviation="2"/>
<feColorMatrix type="matrix" values="0 0 0 0 0 0 0 0 0 0 0 0 0 0 0 0 0 0 0.25 0"/>
<feBlend mode="normal" in2="BackgroundImageFix" result="effect1_dropShadow_37_16"/>
<feBlend mode="normal" in="SourceGraphic" in2="effect1_dropShadow_37_16" result="shape"/>
</filter>
<clipPath id="clip0_37_16">
<rect width="32" height="32" fill="white" transform="translate(1228 34)"/>
</clipPath>
</defs>
</svg>
