<svg width="112" height="23" viewBox="0 0 112 23" fill="none" xmlns="http://www.w3.org/2000/svg">
<path d="M18.0617 7.96904C18.0617 3.57578 14.5185 0.0439451 10.1111 0.0439451H0V22.9578H10.1111C14.5185 22.9578 18.0617 19.426 18.0617 15.0327C18.0617 13.7406 17.7592 12.5777 17.2407 11.5009C17.7592 10.4241 18.0617 9.21811 18.0617 7.96904ZM14.6049 11.5009C13.5679 12.8361 11.9259 13.6975 10.1111 13.6975V15.8941C12.2716 15.8941 14.216 15.0327 15.6851 13.6544C15.8148 14.0851 15.858 14.5589 15.858 15.0758C15.858 18.22 13.3086 20.8042 10.1111 20.8042H2.59258V2.28365H10.1111C13.2654 2.28365 15.858 4.82484 15.858 8.01211C15.858 8.48589 15.8148 8.95967 15.6851 9.39038C14.2592 8.01211 12.2716 7.15069 10.1111 7.15069V9.34732C11.9259 9.30425 13.5679 10.1657 14.6049 11.5009Z" fill="#40514E"/>
<path d="M32.7532 6.58981V9.13101C31.3273 7.7958 29.4261 6.97745 27.3088 6.97745C22.9015 6.97745 19.3583 10.5093 19.3583 14.9025C19.3583 19.2958 22.9015 22.8276 27.3088 22.8276C29.4261 22.8276 31.3273 22.0093 32.7532 20.6741V22.9568H35.3458V6.58981H32.7532V6.58981ZM27.3088 20.3726C24.2842 20.3726 21.8212 17.9175 21.8212 14.9025C21.8212 11.8876 24.2842 9.43251 27.3088 9.43251C30.1174 9.43251 32.4075 11.543 32.7532 14.2134V15.5486C32.4075 18.2621 30.1174 20.3726 27.3088 20.3726Z" fill="#40514E"/>
<path d="M69.654 7.10674C67.58 7.10674 65.6787 7.88202 64.296 9.17415V0H61.7034V14.9888C61.7034 19.382 65.2466 22.9139 69.654 22.9139C74.0614 22.9139 77.6046 19.382 77.6046 14.9888C77.6046 10.6386 74.0614 7.10674 69.654 7.10674ZM69.654 20.5019C66.6294 20.5019 64.1664 18.0468 64.1664 15.0318C64.1664 12.0169 66.6294 9.5618 69.654 9.5618C72.6787 9.5618 75.1417 12.0169 75.1417 15.0318C75.1417 18.0468 72.6787 20.5019 69.654 20.5019Z" fill="#40514E"/>
<path d="M69.654 7.10674C67.58 7.10674 65.6787 7.88202 64.296 9.17415V0H61.7034V14.9888C61.7034 19.382 65.2466 22.9139 69.654 22.9139C74.0614 22.9139 77.6046 19.382 77.6046 14.9888C77.6046 10.6386 74.0614 7.10674 69.654 7.10674ZM69.654 20.5019C66.6294 20.5019 64.1664 18.0468 64.1664 15.0318C64.1664 12.0169 66.6294 9.5618 69.654 9.5618C72.6787 9.5618 75.1417 12.0169 75.1417 15.0318C75.1417 18.0468 72.6787 20.5019 69.654 20.5019Z" fill="#40514E"/>
<path d="M86.8515 7.10665C82.4441 7.10665 78.9009 10.6385 78.9009 15.0317C78.9009 19.425 82.4441 22.9568 86.8515 22.9568C91.2588 22.9568 94.802 19.425 94.802 15.0317C94.802 10.6385 91.2588 7.10665 86.8515 7.10665ZM86.8515 20.5018C83.8268 20.5018 81.3639 18.0467 81.3639 15.0317C81.3639 12.0168 83.8268 9.5617 86.8515 9.5617C89.8761 9.5617 92.3391 12.0168 92.3391 15.0317C92.3391 18.0467 89.8761 20.5018 86.8515 20.5018Z" fill="#40514E"/>
<path d="M104.049 7.10665C99.6416 7.10665 96.0984 10.6385 96.0984 15.0317C96.0984 19.425 99.6416 22.9568 104.049 22.9568C108.456 22.9568 112 19.425 112 15.0317C112 10.6385 108.456 7.10665 104.049 7.10665ZM104.049 20.5018C101.024 20.5018 98.5613 18.0467 98.5613 15.0317C98.5613 12.0168 101.024 9.5617 104.049 9.5617C107.074 9.5617 109.537 12.0168 109.537 15.0317C109.537 18.0467 107.074 20.5018 104.049 20.5018Z" fill="#40514E"/>
<path d="M49.8208 15.5486H47.2283V22.9999H49.8208V15.5486Z" fill="#40514E"/>
<path d="M60.4074 15.5486H57.8149V22.9999H60.4074V15.5486Z" fill="#40514E"/>
<path fill-rule="evenodd" clip-rule="evenodd" d="M47.1987 12.6717H46.783C46.783 10.4751 44.9682 8.66613 42.7645 8.66613C40.604 8.66613 38.8324 10.389 38.746 12.5425V12.6287V12.7148V22.492H36.1534V6.08186H38.746V7.37399C39.8694 6.51257 41.2521 6.03879 42.7645 6.03879C45.1731 6.09528 47.2659 7.37433 48.4211 9.26855C49.6133 7.61968 51.5566 6.54705 53.7531 6.54705C57.3827 6.54705 60.3209 9.47589 60.3209 13.0939H57.8148C57.8148 10.8972 56 9.08825 53.7963 9.08825C51.5926 9.08825 49.7779 10.8972 49.7779 13.0939H47.1853C47.1853 12.9521 47.1898 12.8113 47.1987 12.6717Z" fill="#40514E"/>
</svg>
