<svg width="112" height="99" viewBox="0 0 112 99" fill="none" xmlns="http://www.w3.org/2000/svg">
<path d="M18.0618 83.9692C18.0618 79.5758 14.5185 76.0439 10.1111 76.0439H0V98.9581H10.1111C14.5185 98.9581 18.0618 95.4263 18.0618 91.0329C18.0618 89.7408 17.7593 88.5778 17.2408 87.501C17.7593 86.4243 18.0618 85.2182 18.0618 83.9692ZM14.605 87.501C13.5679 88.8363 11.9259 89.6977 10.1111 89.6977V91.8944C12.2716 91.8944 14.2161 91.0329 15.6852 89.6546C15.8148 90.0854 15.8581 90.5591 15.8581 91.076C15.8581 94.2203 13.3087 96.8046 10.1111 96.8046H2.5926V78.2837H10.1111C13.2655 78.2837 15.8581 80.8249 15.8581 84.0122C15.8581 84.486 15.8148 84.9598 15.6852 85.3905C14.2593 84.0122 12.2716 83.1508 10.1111 83.1508V85.3475C11.9259 85.3044 13.5679 86.1658 14.605 87.501Z" fill="white"/>
<path d="M32.7534 82.59V85.1312C31.3275 83.796 29.4262 82.9776 27.309 82.9776C22.9016 82.9776 19.3584 86.5095 19.3584 90.9028C19.3584 95.2961 22.9016 98.828 27.309 98.828C29.4262 98.828 31.3275 98.0097 32.7534 96.6744V98.9572H35.346V82.59H32.7534V82.59ZM27.309 96.3729C24.2843 96.3729 21.8213 93.9178 21.8213 90.9028C21.8213 87.8878 24.2843 85.4327 27.309 85.4327C30.1176 85.4327 32.4077 87.5432 32.7534 90.2137V91.5489C32.4077 94.2624 30.1176 96.3729 27.309 96.3729Z" fill="white"/>
<path d="M69.6543 83.1068C67.5802 83.1068 65.6789 83.8821 64.2962 85.1743V76H61.7036V90.989C61.7036 95.3823 65.2468 98.9142 69.6543 98.9142C74.0617 98.9142 77.6049 95.3823 77.6049 90.989C77.6049 86.6387 74.0617 83.1068 69.6543 83.1068ZM69.6543 96.5022C66.6296 96.5022 64.1666 94.0471 64.1666 91.0321C64.1666 88.017 66.6296 85.5619 69.6543 85.5619C72.679 85.5619 75.1419 88.017 75.1419 91.0321C75.1419 94.0471 72.679 96.5022 69.6543 96.5022Z" fill="white"/>
<path d="M69.6543 83.1068C67.5802 83.1068 65.6789 83.8821 64.2962 85.1743V76H61.7036V90.989C61.7036 95.3823 65.2468 98.9142 69.6543 98.9142C74.0617 98.9142 77.6049 95.3823 77.6049 90.989C77.6049 86.6387 74.0617 83.1068 69.6543 83.1068ZM69.6543 96.5022C66.6296 96.5022 64.1666 94.0471 64.1666 91.0321C64.1666 88.017 66.6296 85.5619 69.6543 85.5619C72.679 85.5619 75.1419 88.017 75.1419 91.0321C75.1419 94.0471 72.679 96.5022 69.6543 96.5022Z" fill="white"/>
<path d="M86.8519 83.1064C82.4446 83.1064 78.9014 86.6383 78.9014 91.0316C78.9014 95.425 82.4446 98.9568 86.8519 98.9568C91.2593 98.9568 94.8025 95.425 94.8025 91.0316C94.8025 86.6383 91.2593 83.1064 86.8519 83.1064ZM86.8519 96.5018C83.8273 96.5018 81.3643 94.0467 81.3643 91.0316C81.3643 88.0166 83.8273 85.5615 86.8519 85.5615C89.8766 85.5615 92.3396 88.0166 92.3396 91.0316C92.3396 94.0467 89.8766 96.5018 86.8519 96.5018Z" fill="white"/>
<path d="M104.049 83.1064C99.6418 83.1064 96.0986 86.6383 96.0986 91.0316C96.0986 95.425 99.6418 98.9568 104.049 98.9568C108.457 98.9568 112 95.425 112 91.0316C112 86.6383 108.457 83.1064 104.049 83.1064ZM104.049 96.5018C101.025 96.5018 98.5616 94.0467 98.5616 91.0316C98.5616 88.0166 101.025 85.5615 104.049 85.5615C107.074 85.5615 109.537 88.0166 109.537 91.0316C109.537 94.0467 107.074 96.5018 104.049 96.5018Z" fill="white"/>
<path d="M49.8211 91.5486H47.2285V99H49.8211V91.5486Z" fill="white"/>
<path d="M60.408 91.5486H57.8154V99H60.408V91.5486Z" fill="white"/>
<path fill-rule="evenodd" clip-rule="evenodd" d="M47.1987 88.672H46.783C46.783 86.4753 44.9682 84.6663 42.7645 84.6663C40.604 84.6663 38.8323 86.3892 38.7459 88.5428V88.6289V88.7151V98.4924H36.1533V82.082H38.7459V83.3742C39.8694 82.5127 41.2521 82.0389 42.7645 82.0389C45.1731 82.0954 47.2658 83.3745 48.4211 85.2687C49.6132 83.6197 51.5566 82.547 53.7532 82.547C57.3828 82.547 60.321 85.4759 60.321 89.0939H57.8148C57.8148 86.8973 56 85.0883 53.7964 85.0883C51.5927 85.0883 49.7779 86.8973 49.7779 89.0939H47.1853C47.1853 88.9522 47.1898 88.8115 47.1987 88.672Z" fill="white"/>
<path fill-rule="evenodd" clip-rule="evenodd" d="M26 0H86V60H26V0ZM57.9922 7.13553C66.7335 7.13553 73.8099 14.2118 73.8099 22.9532C73.8099 25.5102 73.2152 27.8888 72.1448 29.97C73.2152 32.1108 73.8099 34.4893 73.8099 37.0463C73.8099 45.7877 66.7335 52.864 57.9922 52.864H37.893V7.13553H57.9922ZM58.0517 34.3704C61.679 34.3704 64.8901 32.6459 66.9714 30.0295C64.8901 27.3536 61.6196 25.6886 58.0517 25.6886V21.2882C62.3926 21.2882 66.2578 23.0126 69.1121 25.8075C69.35 24.9155 69.4689 23.9641 69.4689 23.0126C69.4689 16.7094 64.3549 11.5954 58.0517 11.5954H43.126V48.4636H58.0517C64.3549 48.4636 69.4689 43.3496 69.4689 37.0463C69.4689 36.0949 69.35 35.1435 69.1121 34.2515C66.2578 37.0463 62.3331 38.7708 58.0517 38.7708V34.3704Z" fill="white"/>
</svg>
