<svg width="42" height="42" viewBox="0 0 42 42" fill="none" xmlns="http://www.w3.org/2000/svg">
<circle cx="21" cy="21" r="21" fill="#FFB338"/>
<path d="M16.2 14.6H29L26.6 21.8H16.2C15.9878 21.8 15.7843 21.8843 15.6343 22.0343C15.4843 22.1843 15.4 22.3878 15.4 22.6C15.4 22.8122 15.4843 23.0157 15.6343 23.1657C15.7843 23.3157 15.9878 23.4 16.2 23.4H26.6V25H16.2C15.5635 25 14.953 24.7471 14.5029 24.2971C14.0529 23.847 13.8 23.2365 13.8 22.6C13.8 21.9635 14.0529 21.353 14.5029 20.9029C14.953 20.4529 15.5635 20.2 16.2 20.2H16.464L15.4 17L14.6 14.6H13V13H15.4C15.6122 13 15.8157 13.0843 15.9657 13.2343C16.1157 13.3843 16.2 13.5878 16.2 13.8V14.6ZM17 29C16.5757 29 16.1687 28.8314 15.8686 28.5314C15.5686 28.2313 15.4 27.8243 15.4 27.4C15.4 26.9757 15.5686 26.5687 15.8686 26.2686C16.1687 25.9686 16.5757 25.8 17 25.8C17.4243 25.8 17.8313 25.9686 18.1314 26.2686C18.4314 26.5687 18.6 26.9757 18.6 27.4C18.6 27.8243 18.4314 28.2313 18.1314 28.5314C17.8313 28.8314 17.4243 29 17 29ZM25 29C24.5757 29 24.1687 28.8314 23.8686 28.5314C23.5686 28.2313 23.4 27.8243 23.4 27.4C23.4 26.9757 23.5686 26.5687 23.8686 26.2686C24.1687 25.9686 24.5757 25.8 25 25.8C25.4243 25.8 25.8313 25.9686 26.1314 26.2686C26.4314 26.5687 26.6 26.9757 26.6 27.4C26.6 27.8243 26.4314 28.2313 26.1314 28.5314C25.8313 28.8314 25.4243 29 25 29Z" fill="white"/>
</svg>
