<svg width="110" height="30" viewBox="0 0 110 30" fill="none" xmlns="http://www.w3.org/2000/svg">
<mask id="mask0_41_46" style="mask-type:alpha" maskUnits="userSpaceOnUse" x="80" y="0" width="30" height="30">
<path fill-rule="evenodd" clip-rule="evenodd" d="M80 15C80 6.71573 86.7157 0 95 0C103.284 0 110 6.71573 110 15C110 23.2843 103.284 30 95 30C86.7157 30 80 23.2843 80 15Z" fill="white"/>
</mask>
<g mask="url(#mask0_41_46)">
<path fill-rule="evenodd" clip-rule="evenodd" d="M80 15C80 6.71573 86.7157 0 95 0C103.284 0 110 6.71573 110 15C110 23.2843 103.284 30 95 30C86.7157 30 80 23.2843 80 15Z" fill="black"/>
<path fill-rule="evenodd" clip-rule="evenodd" d="M95.0007 7C92.8281 7 92.5554 7.0095 91.702 7.04833C90.8504 7.08733 90.269 7.22217 89.7604 7.42C89.2342 7.62434 88.7879 7.89768 88.3432 8.34251C87.8982 8.78719 87.6248 9.23352 87.4198 9.75953C87.2215 10.2684 87.0865 10.8499 87.0482 11.7012C87.01 12.5546 87 12.8274 87 15.0001C87 17.1728 87.0097 17.4446 87.0483 18.298C87.0875 19.1496 87.2223 19.731 87.42 20.2396C87.6245 20.7658 87.8978 21.2121 88.3427 21.6568C88.7872 22.1018 89.2335 22.3758 89.7594 22.5802C90.2684 22.778 90.8499 22.9128 91.7014 22.9518C92.5547 22.9907 92.8272 23.0002 94.9998 23.0002C97.1726 23.0002 97.4444 22.9907 98.2978 22.9518C99.1495 22.9128 99.7315 22.778 100.24 22.5802C100.766 22.3758 101.212 22.1018 101.657 21.6568C102.102 21.2121 102.375 20.7658 102.58 20.2398C102.777 19.731 102.912 19.1495 102.952 18.2981C102.99 17.4448 103 17.1728 103 15.0001C103 12.8274 102.99 12.5547 102.952 11.7014C102.912 10.8497 102.777 10.2684 102.58 9.7597C102.375 9.23352 102.102 8.78719 101.657 8.34251C101.212 7.89751 100.767 7.62417 100.24 7.42C99.73 7.22217 99.1483 7.08733 98.2966 7.04833C97.4433 7.0095 97.1716 7 94.9983 7H95.0007ZM94.2831 8.4417C94.4961 8.44136 94.7338 8.4417 95.0008 8.4417C97.1368 8.4417 97.39 8.44936 98.2335 8.4877C99.0135 8.52336 99.4368 8.6537 99.7188 8.7632C100.092 8.9082 100.358 9.08154 100.638 9.36154C100.918 9.64154 101.092 9.90821 101.237 10.2815C101.346 10.5632 101.477 10.9866 101.512 11.7666C101.551 12.6099 101.559 12.8632 101.559 14.9983C101.559 17.1333 101.551 17.3866 101.512 18.23C101.477 19.01 101.346 19.4333 101.237 19.715C101.092 20.0883 100.918 20.3542 100.638 20.634C100.358 20.914 100.092 21.0873 99.7188 21.2323C99.4372 21.3423 99.0135 21.4723 98.2335 21.508C97.3901 21.5463 97.1368 21.5547 95.0008 21.5547C92.8646 21.5547 92.6114 21.5463 91.7681 21.508C90.9881 21.472 90.5647 21.3417 90.2826 21.2322C89.9092 21.0872 89.6426 20.9138 89.3626 20.6338C89.0826 20.3538 88.9092 20.0878 88.7639 19.7143C88.6544 19.4326 88.5239 19.0093 88.4884 18.2293C88.45 17.386 88.4424 17.1326 88.4424 14.9963C88.4424 12.8599 88.45 12.6079 88.4884 11.7646C88.5241 10.9846 88.6544 10.5612 88.7639 10.2792C88.9089 9.90588 89.0826 9.63921 89.3626 9.35921C89.6426 9.0792 89.9092 8.90587 90.2826 8.76053C90.5646 8.65053 90.9881 8.52053 91.7681 8.4847C92.5061 8.45136 92.7921 8.44136 94.2831 8.4397V8.4417ZM99.271 9.77011C98.741 9.77011 98.311 10.1996 98.311 10.7298C98.311 11.2598 98.741 11.6898 99.271 11.6898C99.8011 11.6898 100.231 11.2598 100.231 10.7298C100.231 10.1998 99.8011 9.76978 99.271 9.76978V9.77011ZM95.0007 10.8916C92.7319 10.8916 90.8923 12.7311 90.8923 15C90.8923 17.2688 92.7319 19.1075 95.0007 19.1075C97.2696 19.1075 99.1084 17.2688 99.1084 15C99.1084 12.7311 97.2694 10.8916 95.0005 10.8916H95.0007ZM95.0007 12.3335C96.4734 12.3335 97.6674 13.5273 97.6674 15.0002C97.6674 16.4729 96.4734 17.6669 95.0007 17.6669C93.5278 17.6669 92.334 16.4729 92.334 15.0002C92.334 13.5273 93.5278 12.3335 95.0007 12.3335V12.3335Z" fill="white"/>
</g>
<path fill-rule="evenodd" clip-rule="evenodd" d="M40 15C40 6.71573 46.7157 0 55 0C63.2843 0 70 6.71573 70 15C70 23.2843 63.2843 30 55 30C46.7157 30 40 23.2843 40 15Z" fill="#55ACEE"/>
<path fill-rule="evenodd" clip-rule="evenodd" d="M54.5508 12.1922L54.5822 12.7112L54.0576 12.6477C52.148 12.404 50.4798 11.5778 49.0633 10.1902L48.3709 9.50169L48.1925 10.0101C47.8148 11.1435 48.0561 12.3405 48.843 13.1455C49.2627 13.5904 49.1683 13.654 48.4443 13.3891C48.1925 13.3044 47.9721 13.2408 47.9512 13.2726C47.8777 13.3468 48.1295 14.3107 48.3289 14.692C48.6017 15.2217 49.1578 15.7407 49.7663 16.0479L50.2804 16.2915L49.6719 16.3021C49.0843 16.3021 49.0633 16.3127 49.1263 16.5351C49.3361 17.2236 50.165 17.9545 51.0883 18.2723L51.7388 18.4947L51.1723 18.8337C50.3329 19.321 49.3466 19.5964 48.3604 19.6175C47.8882 19.6281 47.5 19.6705 47.5 19.7023C47.5 19.8082 48.78 20.4014 49.525 20.6344C51.7598 21.3229 54.4144 21.0264 56.4079 19.8506C57.8243 19.0138 59.2408 17.3507 59.9018 15.7407C60.2585 14.8827 60.6152 13.315 60.6152 12.5629C60.6152 12.0757 60.6467 12.0121 61.2343 11.4295C61.5805 11.0906 61.9058 10.7198 61.9687 10.6139C62.0737 10.4126 62.0632 10.4126 61.5281 10.5927C60.6362 10.9105 60.5103 10.8681 60.951 10.3915C61.2762 10.0525 61.6645 9.43813 61.6645 9.25806C61.6645 9.22628 61.5071 9.27924 61.3287 9.37458C61.1398 9.4805 60.7202 9.63939 60.4054 9.73472L59.8388 9.91479L59.3247 9.56524C59.0414 9.37458 58.6427 9.16273 58.4329 9.09917C57.8978 8.95087 57.0794 8.97206 56.5967 9.14154C55.2852 9.6182 54.4563 10.8469 54.5508 12.1922Z" fill="white"/>
<path fill-rule="evenodd" clip-rule="evenodd" d="M0 15C0 6.71573 6.71573 0 15 0C23.2843 0 30 6.71573 30 15C30 23.2843 23.2843 30 15 30C6.71573 30 0 23.2843 0 15Z" fill="#3B5998"/>
<path fill-rule="evenodd" clip-rule="evenodd" d="M16.5635 23.8197V15.6589H18.8162L19.1147 12.8466H16.5635L16.5673 11.4391C16.5673 10.7056 16.637 10.3126 17.6905 10.3126H19.0988V7.5H16.8457C14.1395 7.5 13.1869 8.86425 13.1869 11.1585V12.8469H11.5V15.6592H13.1869V23.8197H16.5635Z" fill="white"/>
</svg>
