<svg width="169" height="47" viewBox="0 0 169 47" fill="none" xmlns="http://www.w3.org/2000/svg">
<path d="M75.0617 19.9063C75.0617 15.5131 71.5185 11.9812 67.1111 11.9812H57V34.8952H67.1111C71.5185 34.8952 75.0617 31.3633 75.0617 26.97C75.0617 25.6779 74.7592 24.515 74.2407 23.4382C74.7592 22.3614 75.0617 21.1554 75.0617 19.9063ZM71.6049 23.4382C70.5679 24.7734 68.9259 25.6348 67.1111 25.6348V27.8315C69.2716 27.8315 71.216 26.97 72.6852 25.5918C72.8148 26.0225 72.858 26.4963 72.858 27.0131C72.858 30.1573 70.3086 32.7416 67.1111 32.7416H59.5926V14.2209H67.1111C70.2654 14.2209 72.858 16.7621 72.858 19.9494C72.858 20.4232 72.8148 20.897 72.6852 21.3277C71.2592 19.9494 69.2716 19.088 67.1111 19.088V21.2846C68.9259 21.2416 70.5679 22.103 71.6049 23.4382Z" fill="#40514E"/>
<path d="M89.7533 18.5271V21.0683C88.3274 19.7331 86.4262 18.9148 84.3089 18.9148C79.9015 18.9148 76.3583 22.4466 76.3583 26.8399C76.3583 31.2332 79.9015 34.765 84.3089 34.765C86.4262 34.765 88.3274 33.9467 89.7533 32.6115V34.8942H92.3459V18.5271H89.7533V18.5271ZM84.3089 32.31C81.2842 32.31 78.8213 29.8549 78.8213 26.8399C78.8213 23.8249 81.2842 21.3698 84.3089 21.3698C87.1175 21.3698 89.4076 23.4803 89.7533 26.1508V27.486C89.4076 30.1995 87.1175 32.31 84.3089 32.31Z" fill="#40514E"/>
<path d="M126.654 19.044C124.58 19.044 122.679 19.8193 121.296 21.1114V11.9372H118.704V26.9261C118.704 31.3194 122.247 34.8512 126.654 34.8512C131.062 34.8512 134.605 31.3194 134.605 26.9261C134.605 22.5759 131.062 19.044 126.654 19.044ZM126.654 32.4392C123.63 32.4392 121.167 29.9841 121.167 26.9691C121.167 23.9542 123.63 21.4991 126.654 21.4991C129.679 21.4991 132.142 23.9542 132.142 26.9691C132.142 29.9841 129.679 32.4392 126.654 32.4392Z" fill="#40514E"/>
<path d="M126.654 19.044C124.58 19.044 122.679 19.8193 121.296 21.1114V11.9372H118.704V26.9261C118.704 31.3194 122.247 34.8512 126.654 34.8512C131.062 34.8512 134.605 31.3194 134.605 26.9261C134.605 22.5759 131.062 19.044 126.654 19.044ZM126.654 32.4392C123.63 32.4392 121.167 29.9841 121.167 26.9691C121.167 23.9542 123.63 21.4991 126.654 21.4991C129.679 21.4991 132.142 23.9542 132.142 26.9691C132.142 29.9841 129.679 32.4392 126.654 32.4392Z" fill="#40514E"/>
<path d="M143.852 19.0439C139.444 19.0439 135.901 22.5757 135.901 26.969C135.901 31.3623 139.444 34.8941 143.852 34.8941C148.259 34.8941 151.802 31.3623 151.802 26.969C151.802 22.5757 148.259 19.0439 143.852 19.0439ZM143.852 32.4391C140.827 32.4391 138.364 29.984 138.364 26.969C138.364 23.954 140.827 21.499 143.852 21.499C146.877 21.499 149.339 23.954 149.339 26.969C149.339 29.984 146.877 32.4391 143.852 32.4391Z" fill="#40514E"/>
<path d="M161.049 19.0439C156.642 19.0439 153.099 22.5757 153.099 26.969C153.099 31.3623 156.642 34.8941 161.049 34.8941C165.457 34.8941 169 31.3623 169 26.969C169 22.5757 165.457 19.0439 161.049 19.0439ZM161.049 32.4391C158.025 32.4391 155.562 29.984 155.562 26.969C155.562 23.954 158.025 21.499 161.049 21.499C164.074 21.499 166.537 23.954 166.537 26.969C166.537 29.984 164.074 32.4391 161.049 32.4391Z" fill="#40514E"/>
<path d="M106.821 27.4859H104.228V34.9373H106.821V27.4859Z" fill="#40514E"/>
<path d="M117.408 27.4859H114.815V34.9373H117.408V27.4859Z" fill="#40514E"/>
<path fill-rule="evenodd" clip-rule="evenodd" d="M104.199 24.6091H103.783C103.783 22.4124 101.968 20.6034 99.7646 20.6034C97.6041 20.6034 95.8325 22.3263 95.7461 24.4798V24.566V24.6521V34.4293H93.1535V18.0191H95.7461V19.3113C96.8696 18.4499 98.2523 17.9761 99.7646 17.9761C102.173 18.0326 104.266 19.3116 105.421 21.2059C106.613 19.557 108.557 18.4843 110.753 18.4843C114.383 18.4843 117.321 21.4132 117.321 25.0312H114.815C114.815 22.8345 113 21.0255 110.797 21.0255C108.593 21.0255 106.778 22.8345 106.778 25.0312H104.185C104.185 24.8894 104.19 24.7486 104.199 24.6091Z" fill="#40514E"/>
<path fill-rule="evenodd" clip-rule="evenodd" d="M0 0H47V47H0V0ZM25.0604 5.5896C31.9078 5.5896 37.4509 11.1327 37.4509 17.9801C37.4509 19.983 36.9851 21.8463 36.1466 23.4766C36.9851 25.1535 37.4509 27.0167 37.4509 29.0197C37.4509 35.8671 31.9078 41.4102 25.0604 41.4102H9.31608V5.5896H25.0604ZM25.107 26.9236C27.9484 26.9236 30.4638 25.5727 32.0941 23.5232C30.4638 21.427 27.9018 20.1228 25.107 20.1228V16.6758C28.5074 16.6758 31.5351 18.0267 33.771 20.216C33.9573 19.5172 34.0505 18.7719 34.0505 18.0267C34.0505 13.0891 30.0446 9.08315 25.107 9.08315H13.4152V37.9632H25.107C30.0446 37.9632 34.0505 33.9573 34.0505 29.0197C34.0505 28.2744 33.9573 27.5291 33.771 26.8304C31.5351 29.0197 28.4608 30.3705 25.107 30.3705V26.9236Z" fill="#40514E"/>
</svg>
