<svg width="112" height="23" viewBox="0 0 112 23" fill="none" xmlns="http://www.w3.org/2000/svg">
<path d="M18.0617 7.96908C18.0617 3.5758 14.5185 0.0439453 10.1111 0.0439453H0V22.9579H10.1111C14.5185 22.9579 18.0617 19.426 18.0617 15.0328C18.0617 13.7406 17.7593 12.5777 17.2408 11.5009C17.7593 10.4241 18.0617 9.21814 18.0617 7.96908ZM14.605 11.5009C13.5679 12.8361 11.9259 13.6976 10.1111 13.6976V15.8942C12.2716 15.8942 14.2161 15.0328 15.6852 13.6545C15.8148 14.0852 15.858 14.559 15.858 15.0758C15.858 18.2201 13.3087 20.8043 10.1111 20.8043H2.59259V2.28366H10.1111C13.2654 2.28366 15.858 4.82486 15.858 8.01214C15.858 8.48593 15.8148 8.95971 15.6852 9.39042C14.2593 8.01214 12.2716 7.15072 10.1111 7.15072V9.34736C11.9259 9.30429 13.5679 10.1657 14.605 11.5009Z" fill="#F5F5F5"/>
<path d="M32.7533 6.5899V9.13111C31.3274 7.7959 29.4262 6.97754 27.3089 6.97754C22.9016 6.97754 19.3584 10.5094 19.3584 14.9027C19.3584 19.2959 22.9016 22.8278 27.3089 22.8278C29.4262 22.8278 31.3274 22.0094 32.7533 20.6742V22.957H35.3459V6.5899H32.7533V6.5899ZM27.3089 20.3727C24.2843 20.3727 21.8213 17.9177 21.8213 14.9027C21.8213 11.8877 24.2843 9.43261 27.3089 9.43261C30.1176 9.43261 32.4077 11.5431 32.7533 14.2135V15.5487C32.4077 18.2622 30.1176 20.3727 27.3089 20.3727Z" fill="#F5F5F5"/>
<path d="M69.6543 7.10677C67.5803 7.10677 65.679 7.88205 64.2963 9.17419V0H61.7037V14.9888C61.7037 19.3821 65.2469 22.9139 69.6543 22.9139C74.0617 22.9139 77.605 19.3821 77.605 14.9888C77.605 10.6386 74.0617 7.10677 69.6543 7.10677ZM69.6543 20.502C66.6296 20.502 64.1667 18.0469 64.1667 15.0319C64.1667 12.0169 66.6296 9.56184 69.6543 9.56184C72.679 9.56184 75.142 12.0169 75.142 15.0319C75.142 18.0469 72.679 20.502 69.6543 20.502Z" fill="#F5F5F5"/>
<path d="M69.6543 7.10677C67.5803 7.10677 65.679 7.88205 64.2963 9.17419V0H61.7037V14.9888C61.7037 19.3821 65.2469 22.9139 69.6543 22.9139C74.0617 22.9139 77.605 19.3821 77.605 14.9888C77.605 10.6386 74.0617 7.10677 69.6543 7.10677ZM69.6543 20.502C66.6296 20.502 64.1667 18.0469 64.1667 15.0319C64.1667 12.0169 66.6296 9.56184 69.6543 9.56184C72.679 9.56184 75.142 12.0169 75.142 15.0319C75.142 18.0469 72.679 20.502 69.6543 20.502Z" fill="#F5F5F5"/>
<path d="M86.8518 7.10668C82.4445 7.10668 78.9013 10.6385 78.9013 15.0318C78.9013 19.4251 82.4445 22.9569 86.8518 22.9569C91.2592 22.9569 94.8024 19.4251 94.8024 15.0318C94.8024 10.6385 91.2592 7.10668 86.8518 7.10668ZM86.8518 20.5018C83.8272 20.5018 81.3642 18.0468 81.3642 15.0318C81.3642 12.0168 83.8272 9.56174 86.8518 9.56174C89.8765 9.56174 92.3395 12.0168 92.3395 15.0318C92.3395 18.0468 89.8765 20.5018 86.8518 20.5018Z" fill="#F5F5F5"/>
<path d="M104.049 7.10668C99.642 7.10668 96.0988 10.6385 96.0988 15.0318C96.0988 19.4251 99.642 22.9569 104.049 22.9569C108.457 22.9569 112 19.4251 112 15.0318C112 10.6385 108.457 7.10668 104.049 7.10668ZM104.049 20.5018C101.025 20.5018 98.5617 18.0468 98.5617 15.0318C98.5617 12.0168 101.025 9.56174 104.049 9.56174C107.074 9.56174 109.537 12.0168 109.537 15.0318C109.537 18.0468 107.074 20.5018 104.049 20.5018Z" fill="#F5F5F5"/>
<path d="M49.821 15.5486H47.2285V23H49.821V15.5486Z" fill="#F5F5F5"/>
<path d="M60.4077 15.5486H57.8151V23H60.4077V15.5486Z" fill="#F5F5F5"/>
<path fill-rule="evenodd" clip-rule="evenodd" d="M47.1989 12.6718H46.7832C46.7832 10.4752 44.9684 8.66617 42.7647 8.66617C40.6042 8.66617 38.8325 10.389 38.7461 12.5426V12.6287V12.7149V22.4921H36.1535V6.08189H38.7461V7.37403C39.8696 6.5126 41.2523 6.03881 42.7647 6.03881C45.1733 6.0953 47.2661 7.37436 48.4213 9.26859C49.6135 7.61971 51.5568 6.54708 53.7533 6.54708C57.3829 6.54708 60.3212 9.47593 60.3212 13.0939H57.815C57.815 10.8973 56.0002 9.08828 53.7965 9.08828C51.5929 9.08828 49.7781 10.8973 49.7781 13.0939H47.1855C47.1855 12.9521 47.19 12.8114 47.1989 12.6718Z" fill="#F5F5F5"/>
</svg>
